<?xml version="1.0" standalone="no"?>
<!DOCTYPE svg PUBLIC "-//W3C//DTD SVG 20010904//EN"
 "http://www.w3.org/TR/2001/REC-SVG-20010904/DTD/svg10.dtd">
<svg version="1.0" xmlns="http://www.w3.org/2000/svg"
 width="165.000000pt" height="145.000000pt" viewBox="0 0 165.000000 145.000000"
 preserveAspectRatio="xMidYMid meet">

<g transform="translate(0.000000,145.000000) scale(0.100000,-0.100000)"
fill="#000000" stroke="none">
<path d="M265 910 l0 -461 370 3 c414 3 422 5 451 73 16 39 19 124 4 126 -5 1
-32 1 -60 1 -27 0 -54 0 -60 -1 -5 -1 -10 -20 -10 -44 0 -23 -7 -53 -16 -65
-15 -22 -18 -22 -270 -22 l-254 0 0 313 0 312 78 78 77 77 177 0 c208 0 208 0
208 -91 0 -32 5 -59 10 -60 6 -1 33 -1 60 -1 28 0 55 0 60 1 15 2 12 107 -4
146 -29 68 -37 70 -451 73 l-370 3 0 -461z"/>
<path d="M500 1205 l-74 -75 77 0 77 0 0 75 c0 41 -1 75 -3 75 -1 0 -36 -34
-77 -75z"/>
<path d="M960 930 l0 -150 70 0 70 0 0 150 0 150 -70 0 -70 0 0 -150z"/>
<path d="M80 300 l0 -61 73 3 72 3 0 55 0 55 -72 3 -73 3 0 -61z m130 0 l0
-50 -55 0 -55 0 0 50 0 50 55 0 55 0 0 -50z"/>
<path d="M272 352 c-9 -6 -12 -26 -10 -58 l3 -49 75 0 75 0 0 55 0 55 -65 3
c-36 1 -71 -2 -78 -6z m128 -52 l0 -51 -57 3 -56 3 1 43 c0 23 1 44 1 47 1 3
26 5 56 5 l55 0 0 -50z"/>
<path d="M454 346 c-3 -7 -4 -33 -2 -57 l3 -44 65 -1 c64 -1 64 -1 8 3 l-58 4
0 49 0 49 58 4 57 3 -63 2 c-45 1 -64 -2 -68 -12z"/>
<path d="M970 235 c0 -8 5 -15 10 -15 6 0 10 7 10 15 0 8 -4 15 -10 15 -5 0
-10 -7 -10 -15z"/>
</g>
</svg>
