<svg xmlns="http://www.w3.org/2000/svg" width="60" height="61" viewBox="0 0 60 61" fill="none"><g><path d="M0 8.81787C0 4.39959 3.58172 0.817871 8 0.817871H52C56.4183 0.817871 60 4.39959 60 8.81787V52.8179C60 57.2361 56.4183 60.8179 52 60.8179H8C3.58172 60.8179 0 57.2361 0 52.8179V8.81787Z" fill="#3F424A"></path><path d="M8 0.968262H52C56.3354 0.968262 59.8496 4.48244 59.8496 8.81787V52.8179C59.8496 57.1533 56.3354 60.6675 52 60.6675H8C3.66456 60.6675 0.150391 57.1533 0.150391 52.8179V8.81787C0.150391 4.48244 3.66457 0.968262 8 0.968262Z" stroke="#919191" stroke-width="0.3"></path><path d="M35.3773 32.5352L36.1774 28.1781H31.5204V26.6372C31.5204 24.3349 32.4237 23.4492 34.7614 23.4492C35.4874 23.4492 36.0719 23.4669 36.4084 23.5022V19.5529C35.7708 19.3755 34.2122 19.1987 33.3088 19.1987C28.5445 19.1987 26.3483 21.448 26.3483 26.3007V28.1781H23.4084V32.5352H26.3483V42.0159C27.4513 42.2896 28.605 42.4356 29.7923 42.4356C30.3769 42.4356 30.9535 42.3997 31.5198 42.3313V32.5352H35.3767H35.3773Z" fill="#F7F7F7"></path></g><defs></defs></svg>