<svg xmlns="http://www.w3.org/2000/svg" width="60" height="61" viewBox="0 0 60 61" fill="none"><g><path d="M0 8.81787C0 4.39959 3.58172 0.817871 8 0.817871H52C56.4183 0.817871 60 4.39959 60 8.81787V52.8179C60 57.2361 56.4183 60.8179 52 60.8179H8C3.58172 60.8179 0 57.2361 0 52.8179V8.81787Z" fill="#3F424A"></path><path d="M8 0.968262H52C56.3354 0.968262 59.8496 4.48244 59.8496 8.81787V52.8179C59.8496 57.1533 56.3354 60.6675 52 60.6675H8C3.66456 60.6675 0.150391 57.1533 0.150391 52.8179V8.81787C0.150391 4.48244 3.66457 0.968262 8 0.968262Z" stroke="#919191" stroke-width="0.3"></path><path d="M22.5306 44.4215H16.8174V26.2738H22.5306V44.4215ZM19.6701 23.759C19.022 23.7553 18.3895 23.5598 17.8525 23.197C17.3155 22.8343 16.8979 22.3205 16.6526 21.7207C16.4072 21.1209 16.345 20.4618 16.4739 19.8267C16.6028 19.1915 16.9169 18.6088 17.3766 18.152C17.8363 17.6952 18.4211 17.3849 19.057 17.2601C19.6929 17.1353 20.3516 17.2017 20.9499 17.4509C21.5481 17.7001 22.0591 18.121 22.4184 18.6603C22.7777 19.1997 22.9692 19.8334 22.9687 20.4815C22.9748 20.9153 22.8935 21.346 22.7296 21.7478C22.5657 22.1496 22.3227 22.5143 22.0148 22.8201C21.707 23.126 21.3408 23.3667 20.9379 23.528C20.5351 23.6893 20.1039 23.7679 19.6701 23.759ZM43.589 44.4373H37.8784V34.523C37.8784 31.5991 36.6355 30.6966 35.031 30.6966C33.3369 30.6966 31.6744 31.9738 31.6744 34.5969V44.4373H25.9612V26.287H31.4553V28.8019H31.5292C32.0808 27.6856 34.0124 25.7777 36.9601 25.7777C40.1479 25.7777 43.5916 27.6698 43.5916 33.2115L43.589 44.4373Z" fill="#F7F7F7"></path></g><defs></defs></svg>