<svg xmlns="http://www.w3.org/2000/svg" width="60" height="61" viewBox="0 0 60 61" fill="none"><g><path d="M0 8.81787C0 4.39959 3.58172 0.817871 8 0.817871H52C56.4183 0.817871 60 4.39959 60 8.81787V52.8179C60 57.2361 56.4183 60.8179 52 60.8179H8C3.58172 60.8179 0 57.2361 0 52.8179V8.81787Z" fill="#3F424A"></path><path d="M8 0.968262H52C56.3354 0.968262 59.8496 4.48244 59.8496 8.81787V52.8179C59.8496 57.1533 56.3354 60.6675 52 60.6675H8C3.66456 60.6675 0.150391 57.1533 0.150391 52.8179V8.81787C0.150391 4.48244 3.66457 0.968262 8 0.968262Z" stroke="#919191" stroke-width="0.3"></path><path d="M43.3208 25.4689C43.3208 25.4689 43.0554 23.6241 42.2377 22.814C41.2024 21.7479 40.045 21.7427 39.5141 21.68C35.7127 21.4082 30.0053 21.4082 30.0053 21.4082H29.9947C29.9947 21.4082 24.2873 21.4082 20.4859 21.68C19.955 21.7427 18.7975 21.7479 17.7623 22.814C16.9446 23.6241 16.6845 25.4689 16.6845 25.4689C16.6845 25.4689 16.4084 27.6377 16.4084 29.8013V31.829C16.4084 33.9926 16.6792 36.1614 16.6792 36.1614C16.6792 36.1614 16.9446 38.0063 17.7569 38.8163C18.7922 39.8824 20.1514 39.8458 20.7567 39.9608C22.9334 40.1646 30 40.2273 30 40.2273C30 40.2273 35.7127 40.2169 39.5141 39.9504C40.045 39.8876 41.2024 39.8824 42.2377 38.8163C43.0554 38.0063 43.3208 36.1614 43.3208 36.1614C43.3208 36.1614 43.5916 33.9978 43.5916 31.829V29.8013C43.5916 27.6377 43.3208 25.4689 43.3208 25.4689ZM27.1914 34.2905V26.7702L34.5341 30.5434L27.1914 34.2905Z" fill="#F7F7F7"></path></g><defs></defs></svg>